<svg width="171" height="97" viewBox="0 0 171 97" fill="none" xmlns="http://www.w3.org/2000/svg">
<path fill-rule="evenodd" clip-rule="evenodd" d="M129.106 41.7413C130.423 41.7413 131.491 42.8089 131.491 44.1259L131.491 48.8951C131.491 50.212 130.423 51.2797 129.106 51.2797C127.789 51.2797 126.722 50.212 126.722 48.8951L126.722 44.1259C126.722 42.8089 127.789 41.7413 129.106 41.7413Z" fill="#00D5E2"/>
<path fill-rule="evenodd" clip-rule="evenodd" d="M154.076 38.1646C155.393 38.1646 156.46 39.2322 156.46 40.5491L156.46 52.472C156.46 53.789 155.393 54.8566 154.076 54.8566C152.759 54.8566 151.691 53.789 151.691 52.472L151.691 40.5491C151.691 39.2322 152.759 38.1646 154.076 38.1646Z" fill="#00D5E2"/>
<path fill-rule="evenodd" clip-rule="evenodd" d="M145.753 30.3325C147.07 30.3325 148.137 31.4001 148.137 32.7171L148.137 59.6054C148.137 60.9224 147.07 61.99 145.753 61.99C144.436 61.99 143.368 60.9224 143.368 59.6054L143.368 32.7171C143.368 31.4001 144.436 30.3325 145.753 30.3325Z" fill="#00D5E2"/>
<path fill-rule="evenodd" clip-rule="evenodd" d="M137.43 34.6494C138.746 34.6494 139.814 35.717 139.814 37.034L139.814 55.2885C139.814 56.6054 138.746 57.673 137.43 57.673C136.113 57.673 135.045 56.6054 135.045 55.2885L135.045 37.034C135.045 35.717 136.113 34.6494 137.43 34.6494Z" fill="#00D5E2"/>
<path fill-rule="evenodd" clip-rule="evenodd" d="M120.76 36.376C122.077 36.376 123.145 37.4436 123.145 38.7606L123.145 54.2603C123.145 55.5773 122.077 56.6449 120.76 56.6449C119.443 56.6449 118.376 55.5773 118.376 54.2603L118.376 38.7606C118.376 37.4436 119.443 36.376 120.76 36.376Z" fill="#003BE5"/>
<path fill-rule="evenodd" clip-rule="evenodd" d="M162.399 36.376C163.716 36.376 164.783 37.4436 164.783 38.7606L164.783 54.2603C164.783 55.5773 163.716 56.6449 162.399 56.6449C161.082 56.6449 160.014 55.5773 160.014 54.2603L160.014 38.7606C160.014 37.4436 161.082 36.376 162.399 36.376Z" fill="#003BE5"/>
<path fill-rule="evenodd" clip-rule="evenodd" d="M141.568 5.35632C128.04 5.35632 117.092 16.2707 117.092 29.7116V43.716H120.382C121.699 43.716 122.767 44.7836 122.767 46.1005C122.767 47.4175 121.699 48.4851 120.382 48.4851H116.22C114.068 48.4851 112.323 46.74 112.323 44.5872V29.7116C112.323 13.6165 125.426 0.587158 141.568 0.587158C157.71 0.587158 170.814 13.6165 170.814 29.7116V44.5872C170.814 46.74 169.068 48.4851 166.916 48.4851H162.754C161.437 48.4851 160.37 47.4175 160.37 46.1005C160.37 44.7836 161.437 43.716 162.754 43.716H166.044V29.7116C166.044 16.2707 155.096 5.35632 141.568 5.35632Z" fill="#003BE5"/>
<path d="M53.8829 96.2065C53.3549 96.2065 52.8395 96.1562 52.3367 96.0557C51.8338 95.9677 51.375 95.7979 50.9601 95.5465C50.5578 95.2951 50.2373 94.9431 49.9984 94.4905C49.7596 94.038 49.6402 93.4597 49.6402 92.7557C49.6402 92.3283 49.6904 91.8443 49.791 91.3038C49.8916 90.7632 50.0173 90.1472 50.1681 89.4558L52.4687 78.7075H47.5848L48.1882 75.879H51.4693C51.8715 75.879 52.1858 75.8539 52.4121 75.8036C52.6384 75.7533 52.8144 75.659 52.9401 75.5207C53.0658 75.3699 53.1726 75.1436 53.2606 74.8419C53.3486 74.5402 53.4429 74.1442 53.5435 73.6539L54.4675 69.2415H57.692L56.2966 75.879H62.557L61.9536 78.7075H55.6931L53.6189 88.4187C53.4555 89.2232 53.3172 89.9021 53.2041 90.4552C53.1035 91.0083 53.0532 91.4609 53.0532 91.8129C53.0532 92.3157 53.1601 92.7055 53.3738 92.982C53.6001 93.246 53.9835 93.378 54.524 93.378C54.8886 93.378 55.272 93.3466 55.6743 93.2837C56.0766 93.2209 56.3657 93.158 56.5417 93.0952L55.9571 95.8859C55.7183 95.9614 55.4292 96.0305 55.0897 96.0934C54.7629 96.1688 54.3606 96.2065 53.8829 96.2065Z" fill="#003BE5"/>
<path d="M69.9282 96.2631C68.4196 96.2631 67.2191 95.9928 66.3265 95.4522C65.434 94.8991 64.7929 94.1951 64.4032 93.3403C64.0135 92.4729 63.8186 91.5678 63.8186 90.6249C63.8186 89.9084 63.8815 89.173 64.0072 88.4187C64.1455 87.6519 64.3529 86.621 64.6294 85.3262L66.6471 75.879H69.8716L67.9482 84.9114C67.6842 86.1308 67.4831 87.1302 67.3448 87.9096C67.2065 88.6764 67.1374 89.3615 67.1374 89.9649C67.1374 90.9329 67.4391 91.7312 68.0425 92.3597C68.6459 92.9883 69.6202 93.3026 70.9653 93.3026C72.1218 93.3026 73.2092 92.9569 74.2275 92.2655C75.2583 91.5615 76.132 90.6878 76.8486 89.6444C77.5651 88.5884 78.0303 87.5387 78.244 86.4953L80.1485 87.2684C79.9096 88.3747 79.4822 89.4621 78.8662 90.5306C78.2628 91.5866 77.5023 92.5483 76.5846 93.4157C75.6795 94.2831 74.6612 94.9745 73.5298 95.49C72.3984 96.0054 71.1979 96.2631 69.9282 96.2631ZM76.2263 95.9048L80.4879 75.879H83.6935L79.4319 95.9048H76.2263Z" fill="#003BE5"/>
<path d="M99.2194 95.9048L101.312 86.3067C101.551 85.2256 101.727 84.3582 101.84 83.7045C101.966 83.0383 102.029 82.4474 102.029 81.932C102.029 80.9137 101.671 80.1092 100.954 79.5183C100.25 78.9275 99.1817 78.6321 97.7485 78.6321C96.68 78.6321 95.6303 78.9086 94.5995 79.4618C93.5687 80.0023 92.6824 80.7377 91.9407 81.668C91.199 82.5857 90.7024 83.6165 90.451 84.7605L88.6031 84.0628C88.8545 82.8811 89.3196 81.7811 89.9985 80.7629C90.6899 79.7321 91.5196 78.8332 92.4875 78.0664C93.4681 77.287 94.5241 76.6773 95.6555 76.2373C96.7869 75.7973 97.9245 75.5773 99.0685 75.5773C101.017 75.5773 102.563 76.0424 103.707 76.9727C104.851 77.8904 105.423 79.1852 105.423 80.8572C105.423 81.5486 105.342 82.3468 105.178 83.252C105.015 84.1445 104.782 85.2633 104.48 86.6085L102.425 95.9048H99.2194ZM84.8883 95.9048L89.1499 75.879H92.3555L88.0939 95.9048H84.8883Z" fill="#003BE5"/>
<path d="M110.884 87.1742L111.488 84.3079H126.969L126.403 85.2508C126.479 84.9868 126.535 84.7165 126.573 84.4399C126.623 84.1634 126.648 83.7737 126.648 83.2708C126.648 82.3657 126.454 81.5549 126.064 80.8383C125.674 80.1092 125.077 79.5372 124.273 79.1224C123.481 78.6949 122.462 78.4812 121.218 78.4812C119.86 78.4812 118.634 78.7201 117.541 79.1978C116.447 79.6629 115.504 80.3229 114.712 81.1777C113.933 82.0326 113.329 83.032 112.902 84.1759C112.487 85.3199 112.28 86.5645 112.28 87.9096C112.28 89.041 112.487 90.0152 112.902 90.8324C113.329 91.6495 113.97 92.278 114.825 92.718C115.693 93.1454 116.78 93.3591 118.088 93.3591C119.194 93.3591 120.155 93.2523 120.973 93.0386C121.802 92.8123 122.5 92.5169 123.066 92.1523C123.644 91.7752 124.103 91.3666 124.442 90.9266C124.794 90.4866 125.039 90.0467 125.178 89.6067H128.421C128.245 90.4112 127.868 91.2095 127.29 92.0015C126.711 92.7934 125.957 93.5163 125.027 94.17C124.097 94.8111 123.009 95.3265 121.765 95.7162C120.52 96.1059 119.137 96.3008 117.616 96.3008C115.844 96.3008 114.329 95.9551 113.072 95.2637C111.815 94.5597 110.853 93.5854 110.187 92.3409C109.52 91.0838 109.187 89.6255 109.187 87.9661C109.187 86.2062 109.501 84.5782 110.13 83.0823C110.771 81.5737 111.657 80.26 112.789 79.1412C113.92 78.0098 115.234 77.1361 116.73 76.5201C118.226 75.8916 119.829 75.5773 121.538 75.5773C123.286 75.5773 124.769 75.9293 125.988 76.6333C127.208 77.3373 128.138 78.2927 128.779 79.4995C129.42 80.7063 129.741 82.0703 129.741 83.5914C129.741 84.1319 129.684 84.7605 129.571 85.4771C129.458 86.181 129.332 86.7467 129.194 87.1742H110.884Z" fill="#003BE5"/>
<path d="M140.224 96.2819C139.143 96.2819 138.143 96.1688 137.226 95.9425C136.308 95.7162 135.51 95.3957 134.831 94.9808C134.152 94.5534 133.624 94.0443 133.247 93.4534C132.87 92.8626 132.681 92.2026 132.681 91.4735C132.681 91.2221 132.706 90.9329 132.757 90.6061C132.819 90.2667 132.876 90.0089 132.926 89.8329H136.151C136.113 89.9461 136.075 90.1095 136.038 90.3232C136.012 90.5369 136 90.7066 136 90.8324C136 91.662 136.408 92.2969 137.226 92.7369C138.043 93.1643 139.193 93.378 140.676 93.378C141.619 93.378 142.537 93.2837 143.429 93.0952C144.335 92.894 145.083 92.5609 145.673 92.0958C146.264 91.6306 146.56 90.9832 146.56 90.1535C146.56 89.2861 146.176 88.645 145.409 88.2301C144.655 87.8153 143.411 87.4696 141.676 87.193C140.444 86.9919 139.319 86.6965 138.3 86.3067C137.295 85.9045 136.49 85.3576 135.887 84.6662C135.296 83.9622 135 83.0697 135 81.9886C135 80.8949 135.258 79.9458 135.774 79.1412C136.289 78.3367 136.98 77.6704 137.848 77.1424C138.728 76.6144 139.708 76.2247 140.789 75.9733C141.883 75.7093 143.002 75.5773 144.146 75.5773C145.453 75.5773 146.654 75.7784 147.748 76.1807C148.841 76.583 149.715 77.155 150.369 77.8967C151.022 78.6258 151.349 79.4869 151.349 80.48C151.349 80.832 151.33 81.1149 151.293 81.3286C151.268 81.5423 151.224 81.7497 151.161 81.9509H147.955C148.005 81.7749 148.037 81.6303 148.049 81.5172C148.062 81.3914 148.068 81.2469 148.068 81.0834C148.068 80.48 147.867 79.9898 147.465 79.6126C147.075 79.2229 146.56 78.9338 145.919 78.7452C145.277 78.5567 144.573 78.4624 143.807 78.4624C142.901 78.4624 142.021 78.5692 141.167 78.7829C140.312 78.9841 139.608 79.3109 139.055 79.7635C138.502 80.2035 138.225 80.7755 138.225 81.4794C138.225 82.372 138.646 83.0257 139.488 83.4405C140.331 83.8428 141.512 84.1948 143.033 84.4965C143.964 84.6851 144.837 84.9051 145.655 85.1565C146.472 85.4079 147.188 85.7285 147.804 86.1182C148.42 86.5079 148.898 86.9919 149.237 87.5701C149.589 88.1358 149.765 88.8335 149.765 89.6632C149.765 90.8575 149.495 91.8758 148.954 92.718C148.414 93.5603 147.685 94.2454 146.767 94.7734C145.862 95.2888 144.844 95.6659 143.712 95.9048C142.581 96.1562 141.418 96.2819 140.224 96.2819Z" fill="#003BE5"/>
<path d="M8.1838 59.7114C7.50496 59.7114 6.81983 59.6612 6.12842 59.5606C5.44958 59.46 4.82102 59.2715 4.24275 58.9949C3.66448 58.7058 3.19935 58.2909 2.84736 57.7503C2.49537 57.2098 2.31937 56.4932 2.31937 55.6007C2.31937 55.1481 2.36337 54.6453 2.45137 54.0922C2.55194 53.539 2.67765 52.9168 2.8285 52.2253L4.63874 43.7964H0L0.961691 39.2708H2.33823C3.07992 39.2708 3.68334 39.2331 4.14847 39.1577C4.6136 39.0697 4.97816 38.8937 5.24216 38.6297C5.51872 38.3531 5.745 37.932 5.921 37.3663C6.10956 36.8006 6.29813 36.0337 6.4867 35.0658L6.97697 32.671H12.8414L11.4649 39.2708H17.2727L16.311 43.7964H10.5032L8.95692 50.9997C8.81864 51.7162 8.7055 52.2882 8.6175 52.7156C8.54208 53.143 8.50436 53.5139 8.50436 53.8282C8.50436 54.2556 8.59865 54.595 8.78721 54.8464C8.98835 55.0853 9.34663 55.2047 9.86204 55.2047C10.2769 55.2047 10.6917 55.167 11.1066 55.0916C11.5214 55.0161 11.8294 54.9407 12.0306 54.8653L11.0877 59.2589C10.7986 59.372 10.3963 59.4726 9.8809 59.5606C9.37806 59.6612 8.81236 59.7114 8.1838 59.7114Z" fill="#00D5E2"/>
<path d="M16.5182 59.2966L20.7609 39.2708H26.6253L25.1545 46.1723L24.042 45.4181C24.3814 44.4752 24.8214 43.6078 25.3619 42.8159C25.9025 42.0239 26.5311 41.3388 27.2476 40.7605C27.9767 40.1696 28.775 39.7108 29.6424 39.3839C30.5224 39.0571 31.4715 38.8937 32.4898 38.8937C33.3069 38.8937 33.9229 38.9565 34.3377 39.0822C34.7651 39.1954 35.0291 39.2834 35.1297 39.3462L33.0366 44.5884C32.9486 44.5255 32.7223 44.425 32.3578 44.2867C31.9932 44.1484 31.5029 44.0793 30.8869 44.0793C29.8813 44.0793 29.0013 44.249 28.247 44.5884C27.5053 44.9278 26.8705 45.3741 26.3425 45.9272C25.8271 46.4803 25.4059 47.0963 25.0791 47.7752C24.7522 48.454 24.5197 49.1391 24.3814 49.8305L22.3637 59.2966H16.5182Z" fill="#00D5E2"/>
<path d="M33.8271 67.9518C33.186 67.9518 32.5951 67.933 32.0546 67.8952C31.514 67.8575 31.1935 67.8135 31.0929 67.7632L32.0734 63.2942C32.2243 63.3822 32.4946 63.4451 32.8843 63.4828C33.2614 63.5331 33.6825 63.5582 34.1477 63.5582C34.7637 63.5582 35.3356 63.4262 35.8636 63.1622C36.4042 62.9108 36.8882 62.5588 37.3156 62.1062C37.743 61.6663 38.1202 61.1571 38.447 60.5789L38.9938 59.5606L36.3916 39.2708H42.3315L43.2743 55.695H42.5389L50.1947 39.2708H56.3797L45.0468 60.296C44.192 61.88 43.2869 63.2439 42.3315 64.3879C41.3886 65.5444 40.2447 66.4244 38.8996 67.0278C37.5545 67.6438 35.8636 67.9518 33.8271 67.9518Z" fill="#00D5E2"/>
<path d="M67.004 59.7303C65.6463 59.7303 64.4269 59.4097 63.3458 58.7686C62.2646 58.1275 61.4098 57.2475 60.7813 56.1287C60.1653 55.0098 59.8573 53.7276 59.8573 52.2819C59.8573 51.7414 59.8824 51.2762 59.9327 50.8865C59.983 50.4968 60.0521 50.1637 60.1401 49.8871L62.5915 49.8305C62.5538 50.0065 62.5224 50.214 62.4972 50.4528C62.4721 50.6791 62.4595 50.8802 62.4595 51.0562C62.4595 51.7854 62.6292 52.4265 62.9686 52.9796C63.3206 53.5202 63.7795 53.9413 64.3452 54.243C64.9234 54.5321 65.5646 54.6767 66.2686 54.6767C67.2491 54.6767 68.1102 54.4944 68.8519 54.1299C69.6062 53.7653 70.2347 53.2625 70.7376 52.6213C71.253 51.9802 71.6364 51.2385 71.8878 50.3962C72.1518 49.554 72.2838 48.6551 72.2838 47.6997C72.2838 46.3546 71.9507 45.3678 71.2844 44.7392C70.6182 44.0981 69.713 43.7776 68.5691 43.7776C67.7897 43.7776 66.9977 43.9661 66.1931 44.3433C65.4011 44.7078 64.7035 45.2295 64.1 45.9084C63.5092 46.5872 63.1132 47.398 62.9121 48.3409L60.3664 48.19C60.7435 46.3798 61.4538 44.7832 62.4972 43.4004C63.5532 42.005 64.804 40.9113 66.2497 40.1194C67.6954 39.3148 69.2102 38.9125 70.7942 38.9125C73.0067 38.9125 74.8106 39.6354 76.206 41.081C77.614 42.5267 78.318 44.5758 78.318 47.2283C78.318 48.9883 78.0477 50.6288 77.5071 52.1499C76.9666 53.6585 76.1997 54.9847 75.2066 56.1287C74.2135 57.2601 73.0192 58.1463 71.6238 58.7875C70.241 59.416 68.7011 59.7303 67.004 59.7303ZM54.7283 59.2966L61.0075 29.8236H66.872L60.5927 59.2966H54.7283Z" fill="#00D5E2"/>
<path d="M83.7519 51.0374L84.5439 47.1718H97.819L97.159 48.1523C97.2219 47.8883 97.2722 47.6432 97.3099 47.4169C97.3476 47.178 97.3665 46.9203 97.3665 46.6438C97.3665 46.0404 97.2282 45.4872 96.9516 44.9844C96.675 44.469 96.2351 44.0541 95.6317 43.7398C95.0408 43.4256 94.2614 43.2684 93.2934 43.2684C92.1997 43.2684 91.2255 43.4696 90.3706 43.8718C89.5158 44.2741 88.793 44.8398 88.2021 45.5689C87.6238 46.2855 87.1839 47.1278 86.8821 48.0957C86.5804 49.0511 86.4296 50.0883 86.4296 51.2071C86.4296 52.0619 86.5742 52.7973 86.8633 53.4133C87.1524 54.0293 87.6176 54.5007 88.2587 54.8276C88.9124 55.1544 89.7609 55.3178 90.8043 55.3178C91.6089 55.3178 92.3129 55.2487 92.9163 55.1104C93.5197 54.9596 94.0288 54.771 94.4437 54.5447C94.8585 54.3184 95.1854 54.067 95.4242 53.7904C95.6756 53.5139 95.8454 53.2436 95.9334 52.9796H101.722C101.496 53.8219 101.075 54.6516 100.459 55.4687C99.843 56.2732 99.0447 57.0024 98.0642 57.6561C97.0836 58.2972 95.9333 58.8063 94.6134 59.1835C93.2934 59.5606 91.8037 59.7492 90.1443 59.7492C88.1707 59.7492 86.4862 59.3846 85.0908 58.6555C83.7079 57.9263 82.652 56.9207 81.9228 55.6384C81.1937 54.3436 80.8292 52.8539 80.8292 51.1694C80.8292 49.3968 81.156 47.7626 81.8097 46.2666C82.476 44.7707 83.3937 43.4696 84.5628 42.3633C85.7445 41.257 87.1147 40.4022 88.6735 39.7988C90.2323 39.1954 91.9106 38.8937 93.7083 38.8937C95.6442 38.8937 97.3036 39.2457 98.6864 39.9496C100.069 40.6411 101.125 41.609 101.854 42.8536C102.596 44.0981 102.967 45.5564 102.967 47.2283C102.967 47.8066 102.91 48.4603 102.797 49.1894C102.684 49.9185 102.539 50.5345 102.363 51.0374H83.7519Z" fill="#00D5E2"/>
</svg>
